<svg id="Capa_1" enable-background="new 0 0 512.001 512.001" height="512" viewBox="0 0 512.001 512.001" width="512"
  xmlns="http://www.w3.org/2000/svg" fill="rgb(207, 157, 108)">
  <g>
    <path d="m466.001 150c-9.778 0-18.114 6.271-21.21 15h-18.285c.949-5.306 1.575-10.723 1.843-16.232 8.81-3.052 15.152-11.433 15.152-21.268 0-9.876-6.398-18.279-15.265-21.3-3.232-42.555-38.866-76.2-82.235-76.2h-37.5v-15h7.5c4.142 0 7.5-3.358 7.5-7.5s-3.358-7.5-7.5-7.5h-120c-4.142 0-7.5 3.358-7.5 7.5s3.358 7.5 7.5 7.5h7.5v15h-37.5c-43.369 0-79.003 33.645-82.235 76.2-8.867 3.02-15.265 11.424-15.265 21.3 0 9.835 6.342 18.216 15.152 21.268.268 5.509.894 10.926 1.843 16.232h-18.285c-3.096-8.729-11.432-15-21.21-15-12.407 0-22.5 10.093-22.5 22.5s10.093 22.5 22.5 22.5c9.778 0 18.114-6.271 21.21-15h21.925c10.489 34.016 34.857 61.999 66.462 77.313l-35.776 149.913c-1.571-.142-3.158-.226-4.765-.226-28.949 0-52.5 23.551-52.5 52.5s23.551 52.5 52.5 52.5 52.5-23.551 52.5-52.5c0-22.115-13.751-41.066-33.146-48.787l8.522-35.713h226.136l31.32 131.241c.822 3.444 3.896 5.761 7.289 5.761.576 0 1.162-.067 1.747-.207 4.029-.961 6.516-5.007 5.554-9.036l-58.575-245.446c31.606-15.314 55.973-43.297 66.462-77.313h21.925c3.096 8.729 11.432 15 21.21 15 12.407 0 22.5-10.093 22.5-22.5s-10.094-22.5-22.5-22.5zm-420 30c-4.136 0-7.5-3.364-7.5-7.5s3.364-7.5 7.5-7.5 7.5 3.364 7.5 7.5-3.365 7.5-7.5 7.5zm106.556 279.5c0 20.678-16.822 37.5-37.5 37.5s-37.5-16.822-37.5-37.5 16.822-37.5 37.5-37.5 37.5 16.822 37.5 37.5zm65.944-444.5h75v15h-75zm-52.5 30h180c34.684 0 63.329 26.298 67.073 60h-314.147c3.745-33.702 32.39-60 67.074-60zm199.488 315h-218.976l23.124-96.896c6.095 2.096 12.395 3.745 18.864 4.902v39.494c0 4.142 3.358 7.5 7.5 7.5h120c4.142 0 7.5-3.358 7.5-7.5v-39.494c6.47-1.157 12.77-2.806 18.865-4.902zm-161.988-60v-30.227c2.483.145 4.982.227 7.5.227h90c2.518 0 5.017-.082 7.5-.227v30.227zm217.5-165h-300c-4.142 0-7.5 3.358-7.5 7.5s3.358 7.5 7.5 7.5h292.253c-3.875 58.547-52.742 105-112.253 105h-90c-62.033 0-112.5-50.467-112.5-112.5 0-4.142-3.358-7.5-7.5-7.5-4.136 0-7.5-3.364-7.5-7.5s3.364-7.5 7.5-7.5h330c4.136 0 7.5 3.364 7.5 7.5s-3.365 7.5-7.5 7.5zm45 45c-4.136 0-7.5-3.364-7.5-7.5s3.364-7.5 7.5-7.5 7.5 3.364 7.5 7.5-3.365 7.5-7.5 7.5z"/>
    <path d="m92.557 459.5c0 12.407 10.093 22.5 22.5 22.5s22.5-10.093 22.5-22.5-10.093-22.5-22.5-22.5-22.5 10.093-22.5 22.5zm30 0c0 4.136-3.364 7.5-7.5 7.5s-7.5-3.364-7.5-7.5 3.364-7.5 7.5-7.5 7.5 3.364 7.5 7.5z"/>
  </g>
</svg>